<?xml version="1.0" encoding="UTF-8"?>
<!DOCTYPE svg PUBLIC "-//W3C//DTD SVG 1.1//EN" "http://www.w3.org/Graphics/SVG/1.1/DTD/svg11.dtd">
<!-- Creator: CorelDRAW 2021 (64 Bit) -->
<svg xmlns="http://www.w3.org/2000/svg" xml:space="preserve" width="100mm" height="100mm" version="1.1" style="shape-rendering:geometricPrecision; text-rendering:geometricPrecision; image-rendering:optimizeQuality; fill-rule:evenodd; clip-rule:evenodd"
viewBox="0 0 10000 10000"
 xmlns:xlink="http://www.w3.org/1999/xlink"
 xmlns:xodm="http://www.corel.com/coreldraw/odm/2003">
 <defs>
  <style type="text/css">
   <![CDATA[
    .fil0 {fill:#0B9446}
    .fil1 {fill:#8CC641}
   ]]>
  </style>
 </defs>
 <g id="Camada_x0020_1">
  <metadata id="CorelCorpID_0Corel-Layer"/>
  <g id="_2380692847712">
   <path class="fil0" d="M4648.68 6014.16c4.06,-3.6 9.77,-14.68 11.63,-11.38l437.83 -794.68c290.08,-494.68 674.98,-1039.07 1117.69,-1395.04 192.41,-154.71 663.59,-270.81 966.19,-281.25 -811.35,460.6 -1266.12,558.12 -1779.68,1819.11 -80.19,189.66 -301.77,714.45 -317.55,904.82 269.32,114.3 443.83,273.74 862.74,311.18 990.31,88.48 1647.67,-653.74 2113.51,-1430.09 299.58,-499.26 286.76,-1124.78 531.2,-1686.62 126.64,-291.07 384.69,-518.12 552.53,-764.98 186.19,-273.85 526.76,-556.26 565.26,-631.36 -1698.77,4.31 -4591.72,66.26 -5184.06,1918.34 -108.58,339.5 -134.47,684.88 -94.08,1065.8 41.73,393.47 135.88,643.09 216.79,976.15z"/>
   <path class="fil1" d="M282.34 5095.83l281.01 190.08c592.21,265.36 907.33,785.98 1445.41,1194.55 428.83,325.62 1083.72,695.26 1641.44,346.67 126.4,-79.01 328.86,-268.5 382.84,-384.05 6.2,-98.2 -790.05,-798.74 -926.42,-901.71 -278.19,-210.05 -534.89,-112.62 -989.96,-155.1 886.72,-97.87 945.53,-89.03 1739.84,525.79 75.92,58.77 902.66,1020.47 1864.57,1707.84 1127.34,805.6 2225.89,-102.49 2267.96,-82.79 -1.33,-84.37 -1077.68,763.56 -2183.78,-97.29 -855.86,-666.1 -1618.58,-1633.78 -1632.15,-1694.86 -148.94,-670.15 -625.21,-1194.32 -1408.93,-1225.35 -658.12,-26.06 -1335.49,177 -1914.4,406.82 -130.67,51.87 -464.14,96.24 -567.43,169.4z"/>
  </g>
 </g>
</svg>
